<?xml version="1.0" encoding="utf-8"?>
<!-- Generator: Adobe Illustrator 23.0.1, SVG Export Plug-In . SVG Version: 6.00 Build 0)  -->
<svg version="1.1" xmlns="http://www.w3.org/2000/svg" xmlns:xlink="http://www.w3.org/1999/xlink" x="0px" y="0px"
	 viewBox="0 0 150 150" style="enable-background:new 0 0 150 150;" xml:space="preserve">
<style type="text/css">
	.st0{fill:#FFFFFF;}
</style>
<g id="Layer_1">
</g>
<g id="svg3002">
	<g id="XMLID_2024_">
		<path id="XMLID_2076_" class="st0" d="M75.77,25.4c16.35,0,18.29,0.06,24.74,0.36c5.97,0.27,9.21,1.27,11.37,2.11
			c2.86,1.11,4.9,2.44,7.04,4.58c2.14,2.14,3.47,4.18,4.58,7.04c0.84,2.16,1.84,5.4,2.11,11.37c0.29,6.46,0.36,8.39,0.36,24.74
			s-0.06,18.29-0.36,24.74c-0.27,5.97-1.27,9.21-2.11,11.37c-1.11,2.86-2.44,4.9-4.58,7.04c-2.14,2.14-4.18,3.47-7.04,4.58
			c-2.16,0.84-5.4,1.84-11.37,2.11c-6.46,0.29-8.39,0.36-24.74,0.36s-18.29-0.06-24.74-0.36c-5.97-0.27-9.21-1.27-11.37-2.11
			c-2.86-1.11-4.9-2.44-7.04-4.58c-2.14-2.14-3.47-4.18-4.58-7.04c-0.84-2.16-1.84-5.4-2.11-11.37c-0.29-6.46-0.36-8.39-0.36-24.74
			s0.06-18.29,0.36-24.74c0.27-5.97,1.27-9.21,2.11-11.37c1.11-2.86,2.44-4.9,4.58-7.04c2.14-2.14,4.18-3.47,7.04-4.58
			c2.16-0.84,5.4-1.84,11.37-2.11C57.48,25.47,59.42,25.4,75.77,25.4 M75.77,14.37c-16.63,0-18.71,0.07-25.25,0.37
			c-6.52,0.3-10.97,1.33-14.86,2.85c-4.03,1.56-7.44,3.66-10.85,7.06c-3.4,3.4-5.5,6.82-7.06,10.85c-1.51,3.89-2.55,8.35-2.85,14.86
			c-0.3,6.53-0.37,8.62-0.37,25.25c0,16.63,0.07,18.71,0.37,25.25c0.3,6.52,1.33,10.97,2.85,14.86c1.56,4.03,3.66,7.44,7.06,10.85
			c3.4,3.4,6.82,5.5,10.85,7.06c3.89,1.51,8.35,2.55,14.86,2.85c6.53,0.3,8.62,0.37,25.25,0.37c16.63,0,18.71-0.07,25.25-0.37
			c6.52-0.3,10.97-1.33,14.86-2.85c4.03-1.57,7.44-3.66,10.85-7.06s5.5-6.82,7.06-10.85c1.51-3.9,2.55-8.35,2.85-14.86
			c0.3-6.53,0.37-8.62,0.37-25.25c0-16.63-0.07-18.71-0.37-25.25c-0.3-6.52-1.33-10.97-2.85-14.86c-1.57-4.03-3.66-7.44-7.06-10.85
			s-6.82-5.5-10.85-7.06c-3.89-1.51-8.35-2.55-14.86-2.85C94.48,14.44,92.4,14.37,75.77,14.37"/>
		<path id="XMLID_2073_" class="st0" d="M75.77,44.16c-17.36,0-31.44,14.08-31.44,31.44c0,17.37,14.08,31.44,31.44,31.44
			c17.37,0,31.44-14.08,31.44-31.44C107.21,58.24,93.13,44.16,75.77,44.16 M75.77,96.02c-11.27,0-20.41-9.14-20.41-20.41
			c0-11.27,9.14-20.41,20.41-20.41s20.41,9.14,20.41,20.41C96.18,86.88,87.04,96.02,75.77,96.02"/>
		<path id="XMLID_2025_" class="st0" d="M115.8,42.92c0,4.06-3.29,7.35-7.35,7.35c-4.06,0-7.35-3.29-7.35-7.35
			c0-4.06,3.29-7.35,7.35-7.35C112.51,35.57,115.8,38.86,115.8,42.92"/>
	</g>
</g>
</svg>
