<?xml version="1.0" encoding="utf-8"?>
<!-- Generator: Adobe Illustrator 23.0.1, SVG Export Plug-In . SVG Version: 6.00 Build 0)  -->
<svg version="1.1" xmlns="http://www.w3.org/2000/svg" xmlns:xlink="http://www.w3.org/1999/xlink" x="0px" y="0px"
	 viewBox="0 0 150 150" style="enable-background:new 0 0 150 150;" xml:space="preserve">
<style type="text/css">
	.st0{fill:#FFFFFF;}
</style>
<g id="Layer_1">
</g>
<g id="svg3002">
	<g>
		<path class="st0" d="M135.37,45.14c-1.45-5.44-5.71-9.73-11.12-11.19c-9.81-2.64-49.12-2.64-49.12-2.64s-39.32,0-49.12,2.64
			c-5.41,1.46-9.67,5.74-11.12,11.19c-2.63,9.87-2.63,30.46-2.63,30.46s0,20.59,2.63,30.46c1.45,5.44,5.71,9.73,11.12,11.19
			c9.81,2.64,49.12,2.64,49.12,2.64s39.32,0,49.12-2.64c5.41-1.45,9.67-5.74,11.12-11.19C138,96.19,138,75.6,138,75.6
			S138,55.01,135.37,45.14z M62.28,94.3V56.91l32.86,18.7L62.28,94.3z"/>
	</g>
</g>
</svg>
